<svg xmlns="http://www.w3.org/2000/svg" width="132.073" height="132.178" viewBox="0 0 132.073 132.178">
  <g id="knowledge" transform="translate(-0.203)">
    <path id="Path_210815" data-name="Path 210815" d="M132.276,303.883V292.252H119.87V284.5h-4.135v-6.462h4.135V266.406H88.947v3.877h27.046v3.877H35.778v3.877h76.08V284.5H27.47a3.231,3.231,0,0,1,0-6.462H31.9V274.16H27.47a7.108,7.108,0,0,0,0,14.215h88.523v3.877H49.181v3.877H128.4v3.877H18.941a10.985,10.985,0,0,0,0,21.969h91.31V318.1H18.941a7.108,7.108,0,1,1,0-14.215H124.264v6.461H38.326v3.877h85.938V318.1H114.129v3.877H128.4v3.877H18.941a14.861,14.861,0,0,1,0-29.723H45.3v-3.877H27.471a10.985,10.985,0,1,1,0-21.969h57.6v-3.877h-57.6a14.854,14.854,0,0,0-9.934,25.9,18.736,18.736,0,0,0,1.4,37.419H132.276V318.1h-4.135V303.883Z" transform="translate(0 -197.551)" fill="#00635b"/>
    <path id="Path_210816" data-name="Path 210816" d="M117.7,436.406h3.877v3.877H117.7Z" transform="translate(-87.131 -323.612)" fill="#00635b"/>
    <path id="Path_210817" data-name="Path 210817" d="M74.27,57.616l.863.576c.337.224,8.484,5.495,29.506,5.495s29.169-5.271,29.506-5.495l.863-.576V24.979L146.639,21.1V39.4a7.119,7.119,0,0,0-5.169,6.837v9.692h14.215V46.24a7.119,7.119,0,0,0-5.169-6.837V19.81l6.776-2.259-20.358-6.786-1.226,3.678,9.324,3.108L104.639,31.015,64.246,17.551,104.639,4.087l27.391,9.13,1.226-3.678L104.639,0,51.986,17.551,74.27,24.979ZM151.808,46.24v5.815h-6.462V46.24a3.231,3.231,0,0,1,6.462,0ZM78.147,26.271,104.639,35.1l26.492-8.831V41.459H126.35v3.877h4.782v3.877h-8.4v3.877h8.4v2.337c-2.5,1.217-10.536,4.383-26.492,4.383s-24.006-3.171-26.492-4.382Z" transform="translate(-38.399 0)" fill="#00635b"/>
    <path id="Path_210818" data-name="Path 210818" d="M87.7,436.406H91.58v3.877H87.7Z" transform="translate(-64.885 -323.612)" fill="#00635b"/>
    <path id="Path_210819" data-name="Path 210819" d="M295.7,190.406h3.877v3.877H295.7Z" transform="translate(-219.125 -141.194)" fill="#00635b"/>
  </g>
</svg>
