<svg xmlns="http://www.w3.org/2000/svg" xmlns:xlink="http://www.w3.org/1999/xlink" width="132.206" height="132.209" viewBox="0 0 132.206 132.209">
  <defs>
    <clipPath id="clip-path">
      <path id="path787" d="M0-682.665H38.962v38.029H0Z" transform="translate(0 682.665)" fill="#00635b"/>
    </clipPath>
  </defs>
  <g id="Group_143523" data-name="Group 143523" transform="translate(-795 -3735.369)">
    <g id="performance" transform="translate(795 3735.369)">
      <g id="Group_143521" data-name="Group 143521" transform="translate(0 0)">
        <path id="Path_210820" data-name="Path 210820" d="M262.256,54.058h9.063L289.465,72.2a3.043,3.043,0,0,0,4.3,0l10.679-10.678a1.756,1.756,0,0,0-2.484-2.484L291.615,69.386,276.286,54.058h1.18A1.756,1.756,0,0,0,279,53.149l1.315-2.389,2.486,4.305a1.756,1.756,0,0,0,3.2-.366l2.363-7.745,2.363,7.745a1.756,1.756,0,0,0,3.2.366l3.536-6.124h6.7a1.756,1.756,0,0,0,0-3.512h-7.713a1.756,1.756,0,0,0-1.521.878l-2.022,3.5-2.863-9.385a1.756,1.756,0,0,0-3.359,0l-2.863,9.384-2.022-3.5a1.756,1.756,0,0,0-1.521-.878h-.018a1.757,1.757,0,0,0-1.521.909l-2.317,4.208H272.8a10.626,10.626,0,0,1,15.417-14.618l2.16,2.16a1.756,1.756,0,0,0,2.483,0l2.161-2.16a10.626,10.626,0,0,1,15.028,15.028l-2.291,2.291a1.756,1.756,0,0,0,2.484,2.484l2.291-2.291a14.139,14.139,0,1,0-19.995-20l-.919.919-.919-.918a14.138,14.138,0,0,0-22.221,17.1h-6.219a1.756,1.756,0,1,0,0,3.512Z" transform="translate(-214.957 -29.303)" fill="#00635b"/>
        <path id="Path_210825" data-name="Path 210825" d="M130.269,194.057h-7.576V182.515a1.937,1.937,0,1,0-3.873,0v11.541h-7.163V160.569h7.163v12.908a1.937,1.937,0,1,0,3.873,0v-13.43a3.355,3.355,0,0,0-3.351-3.351h-8.207a3.355,3.355,0,0,0-3.351,3.351v34.009h-4.725V137.692a3.355,3.355,0,0,0-3.351-3.351H91.5a3.355,3.355,0,0,0-3.351,3.351v56.365H83.425V150.717a3.355,3.355,0,0,0-3.351-3.351H71.866a3.355,3.355,0,0,0-3.351,3.351v43.341H62.779V151.013a1.937,1.937,0,0,0-3.873,0v43.044H52.774V165.242a3.355,3.355,0,0,0-3.352-3.351H43.99a3.355,3.355,0,0,0-3.351,3.351v28.815H34.506V131.038a3.355,3.355,0,0,0-3.351-3.351H13.626a2.2,2.2,0,1,1,0-4.391H38.46a13.6,13.6,0,0,0,16.492,0H79.786a2.2,2.2,0,1,1,0,4.391H62.258a3.355,3.355,0,0,0-3.351,3.351v10.937a1.937,1.937,0,0,0,3.873,0V131.56H79.786a6.069,6.069,0,0,0,0-12.138H58.417a13.639,13.639,0,1,0-23.421,0H13.626a6.069,6.069,0,0,0,0,12.138H30.633v62.5H24.9v-43.34a3.355,3.355,0,0,0-3.351-3.351H13.339a3.355,3.355,0,0,0-3.351,3.351v43.341H1.937a1.937,1.937,0,1,0,0,3.873H130.269a1.937,1.937,0,0,0,0-3.873ZM46.706,102.676a9.765,9.765,0,1,1-9.765,9.765A9.776,9.776,0,0,1,46.706,102.676ZM21.024,194.057H13.861V151.238h7.163Zm27.877,0H44.512V165.764H48.9Zm30.65,0H72.388V151.238h7.163Zm19.634,0H92.022V138.214h7.163Z" transform="translate(0 -65.721)" fill="#00635b"/>
      </g>
    </g>
    <g id="g777" transform="translate(888.244 3760.345)">
      <g id="g779" transform="translate(7.582 27.93)">
        <path id="path781" d="M0,0H20.448" fill="none" stroke="#00635b" stroke-linecap="round" stroke-linejoin="round" stroke-width="3"/>
      </g>
      <g id="g783">
        <g id="g785" clip-path="url(#clip-path)">
          <path id="path791" d="M223.75-669.332h-10.07v2.971h10.07Z" transform="translate(-201.484 670.075)" fill="none" stroke="#00635b" stroke-linecap="round" stroke-linejoin="round" stroke-width="3"/>
          <g id="g793" transform="translate(22.669 25.105)">
            <path id="path795" d="M-117.848-206.485l-3.344-12.181h-3.789l3.344,12.181Z" transform="translate(124.981 218.666)" fill="none" stroke="#00635b" stroke-linecap="round" stroke-linejoin="round" stroke-width="3"/>
          </g>
          <g id="g797" transform="translate(4.659 25.105)">
            <path id="path799" d="M-62.6-206.485l3.344-12.181h-3.789l-3.344,12.181Z" transform="translate(66.391 218.666)" fill="none" stroke="#00635b" stroke-linecap="round" stroke-linejoin="round" stroke-width="3"/>
          </g>
          <g id="g801" transform="translate(24.633 15.695)">
            <path id="path803" d="M0-39.173l9.422,9.2a1.7,1.7,0,0,0,2.368,0h0a1.606,1.606,0,0,0,0-2.311l-9.422-9.2" transform="translate(0 41.484)" fill="none" stroke="#00635b" stroke-linecap="round" stroke-linejoin="round" stroke-width="3"/>
          </g>
          <g id="g805" transform="translate(19.712 10.069)">
            <path id="path807" d="M-64.143-24.16h-.107a5.69,5.69,0,0,1-3.776-1.425h0v3.993A3.837,3.837,0,0,0-64.143-17.8h0a3.218,3.218,0,0,0,3.257-3.179h0A3.218,3.218,0,0,0-64.143-24.16Z" transform="translate(68.025 25.585)" fill="none" stroke="#00635b" stroke-linecap="round" stroke-linejoin="round" stroke-width="3"/>
          </g>
          <g id="g809" transform="translate(4.913 11.49)">
            <path id="path811" d="M-242.27-16.75a3.517,3.517,0,0,0-4.888,0h0a3.517,3.517,0,0,1-4.888,0h0a3.517,3.517,0,0,0-4.888,0" transform="translate(256.934 17.738)" fill="none" stroke="#00635b" stroke-linecap="round" stroke-linejoin="round" stroke-width="3"/>
          </g>
          <g id="g813" transform="translate(4.598 3.714)">
            <path id="path815" d="M-417.4-52.251v-3.082h-25.264v17.826h23.655" transform="translate(442.666 55.333)" fill="none" stroke="#00635b" stroke-linecap="round" stroke-linejoin="round" stroke-width="3"/>
          </g>
          <g id="g817" transform="translate(29.863 13.481)">
            <path id="path819" d="M0-84.888V-89.9" transform="translate(0 89.896)" fill="none" stroke="#00635b" stroke-linecap="round" stroke-linejoin="round" stroke-width="3"/>
          </g>
          <g id="g821" transform="translate(2.049 21.54)">
            <path id="path823" d="M-488.968-55.521a1.761,1.761,0,0,1-.972.29h-26.8a1.8,1.8,0,0,1-1.826-1.783h0a1.8,1.8,0,0,1,1.826-1.783h24.378" transform="translate(518.564 58.796)" fill="none" stroke="#00635b" stroke-linecap="round" stroke-linejoin="round" stroke-width="3"/>
          </g>
          <g id="g825" transform="translate(29.863 10.139)">
            <path id="path827" d="M0,0H0" fill="none" stroke="#00635b" stroke-linecap="round" stroke-linejoin="round" stroke-width="3"/>
          </g>
        </g>
      </g>
    </g>
    <g id="musical-note" transform="translate(798.407 3768.451)">
      <g id="Group_143522" data-name="Group 143522" transform="translate(0)">
        <path id="Path_210826" data-name="Path 210826" d="M23.3,2.989v9.833a3.234,3.234,0,1,0,1.084,2.421h0v-7.9L34.01,4.9v5.31a3.234,3.234,0,1,0,1.084,2.414V0Zm-2.151,14.4A2.151,2.151,0,1,1,23.3,15.236,2.154,2.154,0,0,1,21.15,17.387ZM24.386,6.222V3.833l9.624-2.44v2.39Zm7.473,8.555a2.151,2.151,0,1,1,2.151-2.151A2.154,2.154,0,0,1,31.858,14.777Z" transform="translate(-17.915)" fill="#00635b"/>
      </g>
    </g>
    <g id="musical-note-2" data-name="musical-note" transform="matrix(0.208, -0.978, 0.978, 0.208, 811.9, 3769.194)">
      <g id="Group_143522-2" data-name="Group 143522" transform="translate(0)">
        <path id="Path_210826-2" data-name="Path 210826" d="M3.774,2.094V8.983a2.266,2.266,0,1,0,.76,1.7h0V5.143l6.743-1.709V7.155a2.266,2.266,0,1,0,.76,1.692V0ZM2.267,12.182a1.507,1.507,0,1,1,1.507-1.507A1.509,1.509,0,0,1,2.267,12.182ZM4.534,4.36V2.685L11.277.976V2.65Zm5.236,5.994a1.507,1.507,0,1,1,1.507-1.507A1.509,1.509,0,0,1,9.769,10.354Z" fill="#00635b"/>
      </g>
    </g>
    <g id="musical-note-3" data-name="musical-note" transform="translate(822.712 3756.782) rotate(-40)">
      <g id="Group_143522-3" data-name="Group 143522" transform="translate(0 0)">
        <path id="Path_210826-3" data-name="Path 210826" d="M1.927,1.069V4.586a1.157,1.157,0,1,0,.388.866h0V2.626l3.442-.873v1.9a1.157,1.157,0,1,0,.388.864V0Zm-.769,5.15a.769.769,0,1,1,.769-.769A.77.77,0,0,1,1.157,6.219ZM2.314,2.226V1.371L5.757.5v.855Zm2.673,3.06a.769.769,0,1,1,.769-.769A.77.77,0,0,1,4.987,5.285Z" fill="#00635b"/>
      </g>
    </g>
  </g>
</svg>
