<svg xmlns="http://www.w3.org/2000/svg" width="136.797" height="132.388" viewBox="0 0 136.797 132.388">
  <g id="Layer_32" data-name="Layer 32" transform="translate(-1 -2)">
    <path id="Path_210808" data-name="Path 210808" d="M135.591,50.541h-6.619V43.922a2.206,2.206,0,0,0-2.206-2.206H109.114a39.715,39.715,0,1,0-79.431,0H12.032a2.206,2.206,0,0,0-2.206,2.206v6.619H3.206A2.206,2.206,0,0,0,1,52.747v75.018a2.206,2.206,0,0,0,2.206,2.206H61.455a9.351,9.351,0,0,0,15.886,0h58.249a2.206,2.206,0,0,0,2.206-2.206V52.747A2.206,2.206,0,0,0,135.591,50.541ZM14.238,107.907H56.16a11.052,11.052,0,0,1,10.811,8.826H14.238ZM49.009,70.482A35.252,35.252,0,0,1,34.127,42.329l10.525.958a6.76,6.76,0,0,1,6.057,5.622,15,15,0,0,0,8.071,10.924,3.248,3.248,0,0,1-1.454,6.154A10.046,10.046,0,0,0,49.009,70.482Zm8.316-.084a7.661,7.661,0,0,0,3.427-14.514,10.591,10.591,0,0,1-5.695-7.7,11.175,11.175,0,0,0-10.008-9.291L34.3,37.914a35,35,0,0,1,1.236-6.129l8.914,1.622a27.3,27.3,0,0,1,14.478,7.583,10.006,10.006,0,0,0,17.086-7.076V30.127a12.323,12.323,0,0,0-9.882-12.054,1.432,1.432,0,0,1,.28-2.835A16.146,16.146,0,0,0,79.9,8.006a35.238,35.238,0,0,1,12.722,7.186l-8.2,1.492A7.541,7.541,0,0,0,84.285,31.5l3.043.609a2.4,2.4,0,0,1,.6,4.494,13.5,13.5,0,0,0-7.5,12.135,27.194,27.194,0,0,1-6.295,17.382,20.5,20.5,0,0,0-4.6,10.9H69.4a35.082,35.082,0,0,1-16.665-4.192A5.613,5.613,0,0,1,57.325,70.4Zm67.234-24.27v57.366H82.637a15.387,15.387,0,0,0-11.035,4.66l0-26.837a39.735,39.735,0,0,0,37.248-35.19Zm0,61.779v8.826H71.826a11.052,11.052,0,0,1,10.811-8.826ZM74.032,76.678a15.994,15.994,0,0,1,3.495-7.722,31.631,31.631,0,0,0,7.316-20.217,9.108,9.108,0,0,1,5.061-8.19,6.809,6.809,0,0,0-1.71-12.768l-3.043-.609a3.129,3.129,0,0,1,.053-6.145l11.171-2.037A35.236,35.236,0,0,1,74.032,76.678ZM69.4,6.413a35.364,35.364,0,0,1,5.776.514,11.749,11.749,0,0,1-8.759,3.9A5.845,5.845,0,0,0,65.27,22.4,7.9,7.9,0,0,1,71.6,30.127v3.786a5.593,5.593,0,0,1-9.549,3.956,31.688,31.688,0,0,0-16.808-8.806l-8.164-1.487A35.34,35.34,0,0,1,69.4,6.413ZM29.944,46.128a39.735,39.735,0,0,0,37.249,35.19v26.834a15.385,15.385,0,0,0-11.032-4.658H14.238V46.128Zm103.441,79.431H76.018a2.206,2.206,0,0,0-1.986,1.22l-.221.466a4.934,4.934,0,0,1-8.826,0l-.232-.466a2.206,2.206,0,0,0-1.975-1.22H5.413v-70.6H9.826v63.986a2.206,2.206,0,0,0,2.206,2.206H126.765a2.206,2.206,0,0,0,2.206-2.206V54.954h4.413Z" transform="translate(0)" fill="#00635b"/>
    <path id="Path_210809" data-name="Path 210809" d="M9,35H31.064v4.413H9Z" transform="translate(9.651 39.811)" fill="#00635b"/>
    <path id="Path_210810" data-name="Path 210810" d="M9,39H44.3v4.413H9Z" transform="translate(9.651 44.637)" fill="#00635b"/>
    <path id="Path_210811" data-name="Path 210811" d="M9,43H44.3v4.413H9Z" transform="translate(9.651 49.463)" fill="#00635b"/>
    <path id="Path_210812" data-name="Path 210812" d="M45,35H67.064v4.413H45Z" transform="translate(53.082 39.811)" fill="#00635b"/>
    <path id="Path_210813" data-name="Path 210813" d="M39,39H74.3v4.413H39Z" transform="translate(45.843 44.637)" fill="#00635b"/>
    <path id="Path_210814" data-name="Path 210814" d="M39,43H74.3v4.413H39Z" transform="translate(45.843 49.463)" fill="#00635b"/>
  </g>
</svg>
