<svg xmlns="http://www.w3.org/2000/svg" width="126.352" height="132.319" viewBox="0 0 126.352 132.319">
  <path id="goal_1_" data-name="goal (1)" d="M125.344,17.788l-6-4.979,6-4.978a2.667,2.667,0,0,0,.814-3.08,2.94,2.94,0,0,0-2.771-1.806H98.559V1.939a2.061,2.061,0,0,0-4.116,0V28.094l-16.9,8.648a5.882,5.882,0,0,0-.668-2.037l-2.381-4.381a6.706,6.706,0,0,0-8.752-2.661l-1.841.888a6.2,6.2,0,0,0-3.225,3.574,5.768,5.768,0,0,0,.4,4.675l2.381,4.382a6.246,6.246,0,0,0,2.344,2.4,16.472,16.472,0,0,0-2.481,5.626l-.443,1.48a1.926,1.926,0,0,0,1.42,2.394,2.142,2.142,0,0,0,.56.074,2.046,2.046,0,0,0,1.98-1.412l.443-1.477c.9-3,1.456-4.6,3.219-5.5l3.161-1.618.39-.188c.13-.063.251-.133.374-.2l22.529-11.53a8.142,8.142,0,0,1-4.154,6.59L78.15,46.2c-.017.009-.034.018-.05.028l-4.56,2.611a1.878,1.878,0,0,0-.69,2.665,2.126,2.126,0,0,0,2.657.737L72.046,62.1l-2.529.977L62.64,65.732l1.982-6.6a1.929,1.929,0,0,0-1.42-2.395,2.077,2.077,0,0,0-2.541,1.339L57.529,68.51a1.764,1.764,0,0,0-.074.422l-.819,14.186a6.129,6.129,0,0,1-.168,2.092l-9.1,18.044H40.753a6.84,6.84,0,0,0-7.026,6.62v5.6a7.33,7.33,0,0,0-2.909-.6h-16.8A6.839,6.839,0,0,0,7,121.495v6.945H2.058a1.943,1.943,0,1,0,0,3.879H123.385a1.943,1.943,0,1,0,0-3.879h-5.352V78.454a6.839,6.839,0,0,0-7.025-6.62H98.559V38a11.539,11.539,0,0,0,2.067-10.365,1.976,1.976,0,0,0-1.178-1.27,2.172,2.172,0,0,0-.889-.153v-3.54h24.827a2.938,2.938,0,0,0,2.771-1.805A2.667,2.667,0,0,0,125.344,17.788ZM64.593,33.316A2.276,2.276,0,0,1,65.776,32l1.841-.888a2.489,2.489,0,0,1,1.084-.247,2.412,2.412,0,0,1,2.128,1.224l2.382,4.382a2.178,2.178,0,0,1-.793,2.891l-.671.342-1.415.683a2.461,2.461,0,0,1-3.213-.977L64.74,35.032A2.119,2.119,0,0,1,64.593,33.316ZM60.458,103.85a7.324,7.324,0,0,0-2.259-.567l2.259-2.828Zm9.77-15.626a7.074,7.074,0,0,0,1.484-3.475c.056-.25,1.071-5.478,1.071-5.478s.961.564,1.062.6a.207.207,0,0,1,.126.17L75.09,90.769h-6.9ZM82.4,77.519,80.66,90.76H79.225L78.067,79.666a4.1,4.1,0,0,0-2.424-3.279l-2.07-1.237,1.379-7.2s5.808,6.5,5.943,6.668C82.1,76.09,82.508,76.68,82.4,77.519ZM60.17,86.9a9.958,9.958,0,0,0,.576-3.6l.748-12.938,9.518-3.676-1.73,9.031c-.005.024-.011.049-.014.074l-1.431,7.467a7.087,7.087,0,0,1-.861,2.583L53.07,103.253H51.924ZM11.114,121.494a2.832,2.832,0,0,1,2.909-2.741h16.8a2.833,2.833,0,0,1,2.91,2.741v6.946H11.114Zm26.729,0V109.873a2.833,2.833,0,0,1,2.91-2.742h16.8a2.832,2.832,0,0,1,2.909,2.742V128.44H37.844v-6.946Zm76.075-43.04V128.44H91.3V116.813a2.062,2.062,0,0,0-4.117,0V128.44H64.574V97.389a2.832,2.832,0,0,1,2.909-2.741h16.8a2.832,2.832,0,0,1,2.909,2.741v9.722a2.061,2.061,0,0,0,4.116,0V78.454a2.833,2.833,0,0,1,2.91-2.742h16.794A2.834,2.834,0,0,1,113.918,78.454Zm-19.7-6.62a6.839,6.839,0,0,0-7.025,6.62V91.366a7.309,7.309,0,0,0-2.386-.576L86.482,78c.33-2.493-1.02-4.146-2.324-5.745-.138-.17-8.137-9.12-8.137-9.12L80.927,49.15l13.516-7.739V71.834Zm4.346-53.04V6.824h21.77l-4.689,3.891a2.686,2.686,0,0,0,0,4.189l4.689,3.891H98.559Zm0,0" fill="#00635b"/>
</svg>
