<svg xmlns="http://www.w3.org/2000/svg" width="137.005" height="131.947" viewBox="0 0 137.005 131.947">
  <g id="Group_143524" data-name="Group 143524" transform="translate(-1679.247 -3950)">
    <g id="deal" transform="translate(1679.247 3984.974)">
      <path id="Path_210827" data-name="Path 210827" d="M137.25,61.27,121.4,22.107a4.709,4.709,0,0,0-6.319-2.578l-12.343,5.495a4.781,4.781,0,0,0-2.769,5.347L96.693,32.21a5.945,5.945,0,0,1-3.72.7l-22.762-3.36a13.147,13.147,0,0,0-10.927,3.508l-1.67,1.606H44.977a2.36,2.36,0,0,1-1.564-.592l-1.12-.951a4.707,4.707,0,0,0-1.437-5.495L31.3,20.078a4.625,4.625,0,0,0-3.572-.972,4.825,4.825,0,0,0-3.191,1.881L1.524,52.182a4.742,4.742,0,0,0,.867,6.552l9.532,7.524a4.722,4.722,0,0,0,2.938,1.014c.211,0,.444-.021.655-.042a4.649,4.649,0,0,0,3.17-1.9l.085-.106,1.374,1.036a3.134,3.134,0,0,1,1.268,2.557V74.5l-3.551,4.565A9.456,9.456,0,0,0,19.509,92.3,9.355,9.355,0,0,0,25.3,94.3a10.709,10.709,0,0,0,1.162-.063,11.473,11.473,0,0,0,1.226-.275c0,.127-.021.232-.021.359a8.928,8.928,0,0,0,8.94,8.94A9.211,9.211,0,0,0,40.2,102.5v.106a8.071,8.071,0,0,0,3.149,5.432l.38.3a8.274,8.274,0,0,0,4.9,1.627,7.744,7.744,0,0,0,3.762-.93,8.253,8.253,0,0,0,3.656,5.432l.275.19a8.249,8.249,0,0,0,6.319,1.184,8.416,8.416,0,0,0,5.347-3.677l.359-.549a8.519,8.519,0,0,0,5.22,1.733,8.751,8.751,0,0,0,6.087-2.515,8.653,8.653,0,0,0,2.515-6.678,3.455,3.455,0,0,0-.042-.465,8.167,8.167,0,0,0,9.32-8.75,6.41,6.41,0,0,0-.127-.888,9.082,9.082,0,0,0,9.553-10.166,4.934,4.934,0,0,0-.085-.549,8.776,8.776,0,0,0,7.059-2.473,8.606,8.606,0,0,0,2.3-7.841c.106-.021.211,0,.317-.021l6.805-.951a4.816,4.816,0,0,0,3.191,1.226,4.392,4.392,0,0,0,1.923-.423l12.385-5.474a4.741,4.741,0,0,0,2.473-6.108ZM15.008,63.637a1.085,1.085,0,0,1-.845-.232L4.673,55.9a1.129,1.129,0,0,1-.211-1.543L27.456,23.1a1.045,1.045,0,0,1,.74-.423h.148a1.046,1.046,0,0,1,.676.232l9.574,7.545a1.074,1.074,0,0,1,.211,1.479l-.3.4-.063.063L25.216,50.322l-.042.042-2.515,3.424-5.77,7.82a.065.065,0,0,0-.021.042l-1.141,1.564a1.009,1.009,0,0,1-.719.423ZM26.04,90.625a5.791,5.791,0,0,1-5.262-9.32l6.805-8.771a5.761,5.761,0,0,1,4.586-2.24,5.8,5.8,0,0,1,4.544,9.363l-6.805,8.771a5.849,5.849,0,0,1-3.868,2.2Zm7.27,7.841a5.257,5.257,0,0,1-.8-7.439l6.784-8.75a5.176,5.176,0,0,1,3.551-2.008,3.1,3.1,0,0,1,.613-.042,5.482,5.482,0,0,1,3.487,1.31,5.33,5.33,0,0,1,.8,7.482l-6.953,8.665a5.386,5.386,0,0,1-7.482.782Zm16,7.8a4.577,4.577,0,0,1-3.3-.761l-.359-.3a4.521,4.521,0,0,1-1.818-3.086,4.649,4.649,0,0,1,.972-3.508l5.157-6.383a4.586,4.586,0,0,1,3.593-1.712,4.5,4.5,0,0,1,2.726.909,4.565,4.565,0,0,1,1.839,3.677,4.5,4.5,0,0,1-.8,2.6,1.179,1.179,0,0,0-.106.169c-.021.021-.021.042-.042.042l-.085.127-4.8,6.425a4.263,4.263,0,0,1-2.98,1.8Zm18.028.148-2.43,3.783a4.8,4.8,0,0,1-3.043,2.092,4.739,4.739,0,0,1-3.551-.655l-.275-.19a4.759,4.759,0,0,1-1.268-6.784c1.268-1.67,2.705-3.529,3.276-4.227.106-.106.211-.232.317-.317a.021.021,0,0,0,.021-.021c.021-.021.063-.042.085-.063a3.108,3.108,0,0,1,.359-.275,4.849,4.849,0,0,1,5.115.042,4.763,4.763,0,0,1,1.395,6.615Zm37.936-28.13a5.091,5.091,0,0,1-6.488.507L86.633,69.808,81.9,66.3a1.828,1.828,0,0,0-2.177,2.938l8.285,6.129,7.017,5.2a5.484,5.484,0,0,1,2.2,3.762,5.394,5.394,0,0,1-1.247,4.185,5.491,5.491,0,0,1-7.334.93L74.079,79.023a1.818,1.818,0,0,0-2.113,2.959l13.928,9.954a4.619,4.619,0,0,1,1.881,3.3,4.525,4.525,0,0,1-7.249,3.973L66.787,88.512a1.817,1.817,0,0,0-2.557.317,1.836,1.836,0,0,0,.3,2.557l12,9.384a5.023,5.023,0,0,1,1.944,3.656,4.908,4.908,0,0,1-1.458,3.868,5.113,5.113,0,0,1-6.446.507s-.106-.127-.254-.275l.042-.063a8.494,8.494,0,0,0-2.494-11.709,8.487,8.487,0,0,0-6.129-1.162c0-.148.021-.3.021-.444a8.23,8.23,0,0,0-9.363-8.179A9.1,9.1,0,0,0,49.056,78.6a8.875,8.875,0,0,0-6.679-1.944c-.317.042-.613.127-.909.19.021-.254.063-.486.063-.74a9.407,9.407,0,0,0-15.259-7.4c0-.021,0-.021.021-.042a.56.56,0,0,1-.127.106,7.83,7.83,0,0,0-.613.571c-.169.169-.359.317-.528.507V68.836a6.8,6.8,0,0,0-2.747-5.495l-1.395-1.036,2.663-3.614,3.36-4.565,1.057-1.416c.063-.063.106-.127.169-.19L40.2,36.141l.782.655a5.989,5.989,0,0,0,3.952,1.479h8.834L48.7,43.136A6.032,6.032,0,0,0,50.3,52.922,18.378,18.378,0,0,0,66.745,52.6l2.2-1.141a5.887,5.887,0,0,1,6.446.634L96.841,69.28a18.383,18.383,0,0,0,3.91,2.367c.444.19.93.38,1.353.528a9.713,9.713,0,0,0,1.12.359,9.238,9.238,0,0,0,1.331.317,11.346,11.346,0,0,0,1.522.211c.211.021.4.021.613.042-.085.021-.148.042-.232.063a5,5,0,0,1-1.184,5.115Zm4.692-8.876a15.919,15.919,0,0,1-2.325.106,8.608,8.608,0,0,1-1.184-.085,9.713,9.713,0,0,1-1.268-.19,5.3,5.3,0,0,1-.972-.232,5.646,5.646,0,0,1-.845-.275c-.38-.127-.782-.3-1.141-.444a14.511,14.511,0,0,1-3.107-1.881L78.771,50.089l-1.1-.867a9.528,9.528,0,0,0-5.981-2.113,9.306,9.306,0,0,0-4.417,1.1l-2.2,1.141a14.663,14.663,0,0,1-13.167.254,2.358,2.358,0,0,1-1.353-2.156,2.323,2.323,0,0,1,.719-1.691l10.546-10.1a9.441,9.441,0,0,1,7.862-2.515L92.466,36.5a9.546,9.546,0,0,0,6.023-1.12l2.79-1.564,4.481,11.074L115.4,68.646ZM133.3,64.081l-12.406,5.474a1.127,1.127,0,0,1-1.437-.571L106.267,36.415l-1.712-4.185-.972-2.409a1.1,1.1,0,0,1,.592-1.437l12.385-5.495a1.121,1.121,0,0,1,.867-.021,1,1,0,0,1,.592.613l15.851,39.183A1.133,1.133,0,0,1,133.3,64.081Z" transform="translate(-0.586 -19.056)" fill="#00635b"/>
    </g>
    <g id="Graduate" transform="translate(1718.083 3950)">
      <path id="Path_210830" data-name="Path 210830" d="M56.316,17.229,31.73,6.825a6.155,6.155,0,0,0-4.773,0L2.37,17.229a3.672,3.672,0,0,0,0,6.763l8.617,3.644V39.352a6.061,6.061,0,0,0,2.937,5.232,30.554,30.554,0,0,0,30.843,0A6.061,6.061,0,0,0,47.7,39.352V27.636l3.672-1.554v5.8a3.045,3.045,0,0,0-.594,5.248,3.049,3.049,0,0,0-1.242,2.448v3.06a1.224,1.224,0,0,0,1.224,1.224h3.672a1.224,1.224,0,0,0,1.224-1.224v-3.06a3.049,3.049,0,0,0-1.242-2.448,3.045,3.045,0,0,0-.594-5.248V25.046l2.492-1.054a3.672,3.672,0,0,0,0-6.763Zm-3.1,17.457a.612.612,0,1,1-.612-.612A.612.612,0,0,1,53.212,34.686Zm0,6.732H51.989V39.581a.612.612,0,0,1,1.224,0Zm-7.956-2.065a3.607,3.607,0,0,1-1.732,3.122,28.11,28.11,0,0,1-28.359,0,3.607,3.607,0,0,1-1.732-3.122V28.671l13.527,5.723a6.149,6.149,0,0,0,4.773,0l13.522-5.723ZM55.363,21.738l-24.586,10.4a3.7,3.7,0,0,1-2.862,0L3.328,21.738a1.224,1.224,0,0,1,0-2.254L27.915,9.08a3.688,3.688,0,0,1,2.862,0l24.586,10.4a1.224,1.224,0,0,1,0,2.254Z" transform="translate(-0.129 -6.344)" fill="#00635b"/>
    </g>
  </g>
</svg>
