<svg xmlns="http://www.w3.org/2000/svg" width="132.439" height="132.438" viewBox="0 0 132.439 132.438">
  <g id="Page-1" transform="translate(0 0)">
    <g id="_031---University" data-name="031---University" transform="translate(0 0.001)">
      <path id="Shape" d="M130.232,117.6V66.219a2.159,2.159,0,0,0-.254-.978H130l-5.4-10.8a6.584,6.584,0,0,0-5.922-3.669h-14.93V48.56A2.207,2.207,0,0,0,103.1,47l-11.95-11.95A6.534,6.534,0,0,0,88.293,33.4V18.508l4.415-1.185v5.362a6.765,6.765,0,0,0,3.017,5.64,2.208,2.208,0,0,0,2.45-3.673,2.357,2.357,0,0,1-1.053-1.967V15.943a4.415,4.415,0,0,0-1.06-8.085L67.354.149a4.395,4.395,0,0,0-2.269,0L36.377,7.857a4.439,4.439,0,0,0,0,8.564l7.77,2.086v14.6h-.139a6.6,6.6,0,0,0-5.077,2.384L29.218,47.148A2.207,2.207,0,0,0,28.7,48.56v2.207H13.765a6.584,6.584,0,0,0-5.922,3.66l-5.4,10.8h.022a2.159,2.159,0,0,0-.254.987V117.6A4.4,4.4,0,0,0,0,121.4v4.415a4.415,4.415,0,0,0,4.415,4.415H33.723a4.4,4.4,0,0,0,3.8,2.207h57.39a4.4,4.4,0,0,0,3.8-2.207h29.309a4.415,4.415,0,0,0,4.415-4.415V121.4A4.4,4.4,0,0,0,130.232,117.6Zm-33.11-.614H94.915V68.426h30.9v48.561Zm-24.28,0H59.6V92.707H72.841Zm2.207-28.7H57.39A2.207,2.207,0,0,0,55.183,90.5v26.488H41.939V68.426H90.5v48.561H77.256V90.5A2.207,2.207,0,0,0,75.049,88.292Zm24.28-37.524v4.415H33.11V50.768ZM94.915,59.6v4.415H37.524V59.6Zm23.76-4.415a2.194,2.194,0,0,1,1.973,1.221l3.805,7.609H99.329V59.6a4.415,4.415,0,0,0,4.415-4.415ZM66.219,4.414,94.945,12.14h-.029L66.231,19.865,37.524,12.122ZM48.561,19.693,65.085,24.13a4.364,4.364,0,0,0,2.269,0l16.524-4.437V33.109H48.561ZM42.312,38.318a2.207,2.207,0,0,1,1.7-.795H86.463a2.207,2.207,0,0,1,1.563.647l8.183,8.183H35.615ZM11.791,56.4a2.194,2.194,0,0,1,1.973-1.221H28.7A4.415,4.415,0,0,0,33.11,59.6v4.415H7.986Zm-7.377,65h28.7v4.415H4.415Zm30.9-4.415H6.622V68.426h30.9v48.561Zm2.207,11.037V121.4h57.39v6.622Zm90.5-2.207h-28.7V121.4h28.7Z" transform="translate(0 -0.001)" fill="#00635b"/>
      <path id="Shape-2" data-name="Shape" d="M28.207,33A2.207,2.207,0,0,0,26,35.207v4.415a2.207,2.207,0,1,0,4.415,0V35.207A2.207,2.207,0,0,0,28.207,33Z" transform="translate(31.39 39.84)" fill="#00635b"/>
      <path id="Shape-3" data-name="Shape" d="M14.207,34A2.207,2.207,0,0,0,12,36.207v4.415a2.207,2.207,0,0,0,4.415,0V36.207A2.207,2.207,0,0,0,14.207,34Z" transform="translate(14.488 41.048)" fill="#00635b"/>
      <path id="Shape-4" data-name="Shape" d="M8.207,34A2.207,2.207,0,0,0,6,36.207v4.415a2.207,2.207,0,0,0,4.415,0V36.207A2.207,2.207,0,0,0,8.207,34Z" transform="translate(7.244 41.048)" fill="#00635b"/>
      <path id="Shape-5" data-name="Shape" d="M14.207,40A2.207,2.207,0,0,0,12,42.207v4.415a2.207,2.207,0,0,0,4.415,0V42.207A2.207,2.207,0,0,0,14.207,40Z" transform="translate(14.488 48.292)" fill="#00635b"/>
      <path id="Shape-6" data-name="Shape" d="M8.207,40A2.207,2.207,0,0,0,6,42.207v4.415a2.207,2.207,0,0,0,4.415,0V42.207A2.207,2.207,0,0,0,8.207,40Z" transform="translate(7.244 48.292)" fill="#00635b"/>
      <path id="Shape-7" data-name="Shape" d="M14.207,46A2.207,2.207,0,0,0,12,48.207v4.415a2.207,2.207,0,0,0,4.415,0V48.207A2.207,2.207,0,0,0,14.207,46Z" transform="translate(14.488 55.535)" fill="#00635b"/>
      <path id="Shape-8" data-name="Shape" d="M8.207,46A2.207,2.207,0,0,0,6,48.207v4.415a2.207,2.207,0,0,0,4.415,0V48.207A2.207,2.207,0,0,0,8.207,46Z" transform="translate(7.244 55.535)" fill="#00635b"/>
      <path id="Shape-9" data-name="Shape" d="M54.207,34A2.207,2.207,0,0,0,52,36.207v4.415a2.207,2.207,0,0,0,4.415,0V36.207A2.207,2.207,0,0,0,54.207,34Z" transform="translate(62.78 41.048)" fill="#00635b"/>
      <path id="Shape-10" data-name="Shape" d="M48.207,34A2.207,2.207,0,0,0,46,36.207v4.415a2.207,2.207,0,1,0,4.415,0V36.207A2.207,2.207,0,0,0,48.207,34Z" transform="translate(55.537 41.048)" fill="#00635b"/>
      <path id="Shape-11" data-name="Shape" d="M54.207,40A2.207,2.207,0,0,0,52,42.207v4.415a2.207,2.207,0,0,0,4.415,0V42.207A2.207,2.207,0,0,0,54.207,40Z" transform="translate(62.78 48.292)" fill="#00635b"/>
      <path id="Shape-12" data-name="Shape" d="M48.207,40A2.207,2.207,0,0,0,46,42.207v4.415a2.207,2.207,0,0,0,4.415,0V42.207A2.207,2.207,0,0,0,48.207,40Z" transform="translate(55.537 48.292)" fill="#00635b"/>
      <path id="Shape-13" data-name="Shape" d="M54.207,46A2.207,2.207,0,0,0,52,48.207v4.415a2.207,2.207,0,0,0,4.415,0V48.207A2.207,2.207,0,0,0,54.207,46Z" transform="translate(62.78 55.535)" fill="#00635b"/>
      <path id="Shape-14" data-name="Shape" d="M48.207,46A2.207,2.207,0,0,0,46,48.207v4.415a2.207,2.207,0,0,0,4.415,0V48.207A2.207,2.207,0,0,0,48.207,46Z" transform="translate(55.537 55.535)" fill="#00635b"/>
      <path id="Shape-15" data-name="Shape" d="M34.207,33A2.207,2.207,0,0,0,32,35.207v4.415a2.207,2.207,0,1,0,4.415,0V35.207A2.207,2.207,0,0,0,34.207,33Z" transform="translate(38.634 39.84)" fill="#00635b"/>
    </g>
  </g>
</svg>
